HIERARCHY
ROOT Hips
{
    OFFSET 0.000000 0.000000 0.000000
    CHANNELS 6 Xposition Yposition Zposition Zrotation Xrotation Yrotation
    JOINT Spine
    {
        OFFSET -0.000000 14.517291 0.000000
        CHANNELS 3 Zrotation Xrotation Yrotation
        JOINT Spine1
        {
            OFFSET -0.000000 37.558300 0.000000
            CHANNELS 3 Zrotation Xrotation Yrotation
            JOINT Neck
            {
                OFFSET -0.000000 37.404057 3.400369
                CHANNELS 3 Zrotation Xrotation Yrotation
                JOINT Head
                {
                    OFFSET -0.000000 24.785618 -3.540803
                    CHANNELS 3 Zrotation Xrotation Yrotation
                    End Site
                    {
                        OFFSET -0.000000 35.408028 0.000000
                    }
                }
            }
            JOINT LeftShoulder
            {
                OFFSET 6.992933 33.973492 -0.192664
                CHANNELS 3 Zrotation Xrotation Yrotation
                JOINT LeftArm
                {
                    OFFSET 21.527611 0.000000 0.000000
                    CHANNELS 3 Zrotation Xrotation Yrotation
                    JOINT LeftForeArm
                    {
                        OFFSET 56.353916 0.000000 0.000000
                        CHANNELS 3 Zrotation Xrotation Yrotation
                        JOINT LeftHand
                        {
                            OFFSET 47.774071 0.000000 0.000000
                            CHANNELS 3 Zrotation Xrotation Yrotation
                            End Site
                            {
                                OFFSET 26.556021 0.000000 0.000000
                            }
                        }
                    }
                }
            }
            JOINT RightShoulder
            {
                OFFSET -7.065357 33.973492 -0.192664
                CHANNELS 3 Zrotation Xrotation Yrotation
                JOINT RightArm
                {
                    OFFSET -21.527611 0.000000 0.000000
                    CHANNELS 3 Zrotation Xrotation Yrotation
                    JOINT RightForeArm
                    {
                        OFFSET -56.353916 0.000000 0.000000
                        CHANNELS 3 Zrotation Xrotation Yrotation
                        JOINT RightHand
                        {
                            OFFSET -47.774071 0.000000 0.000000
                            CHANNELS 3 Zrotation Xrotation Yrotation
                            End Site
                            {
                                OFFSET -26.556021 0.000000 0.000000
                            }
                        }
                    }
                }
            }
        }
    }
    JOINT LeftUpLeg
    {
        OFFSET 17.704014 0.000000 0.000000
        CHANNELS 3 Zrotation Xrotation Yrotation
        JOINT LeftLeg
        {
            OFFSET -0.000000 -81.181816 0.000000
            CHANNELS 3 Zrotation Xrotation Yrotation
            JOINT LeftFoot
            {
                OFFSET -0.000000 -62.821102 0.000000
                CHANNELS 3 Zrotation Xrotation Yrotation
                JOINT LeftToeBase
                {
                    OFFSET -0.000000 -11.507608 26.556021
                    CHANNELS 3 Zrotation Xrotation Yrotation
                    End Site
                    {
                        OFFSET -0.000000 0.000000 7.081605
                    }
                }
            }
        }
    }
    JOINT RightUpLeg
    {
        OFFSET -17.704014 0.000000 0.000000
        CHANNELS 3 Zrotation Xrotation Yrotation
        JOINT RightLeg
        {
            OFFSET -0.000000 -81.181816 0.000000
            CHANNELS 3 Zrotation Xrotation Yrotation
            JOINT RightFoot
            {
                OFFSET -0.000000 -62.821102 0.000000
                CHANNELS 3 Zrotation Xrotation Yrotation
                JOINT RightToeBase
                {
                    OFFSET -0.000000 -11.507608 26.556021
                    CHANNELS 3 Zrotation Xrotation Yrotation
                    End Site
                    {
                        OFFSET -0.000000 0.000000 7.081605
                    }
                }
            }
        }
    }
}
MOTION
Frames:    9
Frame Time:    0.008333
19.918480    146.148819    49.611328    3.591538    2.504782    -57.710842    -0.081085    -2.626120    -3.448606    2.127332    -2.469586    -1.104578    22.233568    7.281910    20.451576    -17.768591    8.578801    18.320641    12.256484    2.539640    -14.344942    -4.112324    -5.528063    -14.678178    -3.626866    -1.496076    -84.005821    -2.343665    -4.234536    -25.286316    -14.203256    1.983247    -21.470465    23.640249    -21.999908    12.194366    12.371510    -41.219784    111.246872    40.036980    -40.494823    49.139297    36.260422    -22.308035    27.088299    -29.874756    42.024822    4.515619    -0.918420    -14.297824    43.572929    0.000000    0.000000    0.000000    -29.327198    -7.591924    -18.611151    3.807415    32.696999    -6.929383    20.209805    -13.437764    7.009581    0.000000    0.000000    0.000000    
19.915138    146.145813    49.617321    3.587576    2.494457    -57.707256    -0.086418    -2.619153    -3.450541    2.140079    -2.469529    -1.104861    22.220854    7.281615    20.451666    -17.770058    8.540590    18.315653    12.258518    2.520372    -14.360719    -4.090872    -5.555027    -14.708825    -3.617344    -1.474582    -84.004471    -2.309755    -4.210098    -25.396839    -14.210116    1.993315    -21.487371    23.646725    -21.970697    12.185400    12.365120    -41.223526    111.224106    40.042942    -40.484074    49.135742    36.251198    -22.304878    27.085068    -29.875444    42.035469    4.517888    -0.921238    -14.303652    43.572285    0.000000    0.000000    0.000000    -29.339142    -7.582866    -18.610518    3.808317    32.706757    -6.912982    20.212879    -13.439343    6.990887    0.000000    0.000000    0.000000    
19.915794    146.140823    49.617168    3.593317    2.489131    -57.710445    -0.095067    -2.611558    -3.447741    2.146559    -2.486479    -1.103390    22.217772    7.290929    20.453125    -17.765581    8.493203    18.312164    12.279933    2.520917    -14.357338    -4.084604    -5.590065    -14.765635    -3.585206    -1.470155    -83.998405    -2.332745    -4.169194    -25.490555    -14.199605    1.995008    -21.486008    23.618744    -21.952755    12.153852    12.351306    -41.211906    111.192551    40.041088    -40.450157    49.131927    36.248703    -22.307470    27.089643    -29.883732    42.042225    4.524655    -0.932582    -14.311690    43.576481    0.000000    0.000000    0.000000    -29.351963    -7.594524    -18.615965    3.809012    32.726925    -6.919066    20.202148    -13.444321    7.009165    0.000000    0.000000    0.000000    
19.913824    146.135132    49.619835    3.593641    2.480686    -57.708858    -0.098225    -2.617218    -3.442492    2.146479    -2.472914    -1.101894    22.218197    7.289270    20.452604    -17.772060    8.448261    18.303728    12.295017    2.511320    -14.368077    -4.073385    -5.604075    -14.806831    -3.586208    -1.520045    -84.040161    -2.400198    -4.208725    -25.415359    -14.205391    1.986610    -21.492418    23.606052    -21.933580    12.130336    12.359771    -41.201256    111.180580    40.037170    -40.443897    49.141922    36.244869    -22.304304    27.100933    -29.891132    42.055298    4.527510    -0.930794    -14.321215    43.572414    0.000000    0.000000    0.000000    -29.366362    -7.595057    -18.620392    3.810964    32.743919    -6.923082    20.210590    -13.442796    7.025557    0.000000    0.000000    0.000000    
19.910486    146.133041    49.620262    3.594330    2.472902    -57.702755    -0.101738    -2.615074    -3.443291    2.144217    -2.474607    -1.102115    22.227621    7.300874    20.447687    -17.785498    8.398897    18.291441    12.316447    2.511698    -14.372594    -4.070910    -5.621553    -14.846401    -3.596536    -1.564584    -84.115852    -2.439635    -4.260781    -25.285076    -14.198760    1.965415    -21.491755    23.571918    -21.909966    12.113259    12.368233    -41.193012    111.168228    40.028744    -40.447399    49.136433    36.235229    -22.304003    27.114916    -29.872585    42.063511    4.513467    -0.931194    -14.315681    43.560062    0.000000    0.000000    0.000000    -29.374964    -7.595052    -18.633146    3.799136    32.759647    -6.907518    20.222412    -13.443689    7.030984    0.000000    0.000000    0.000000    
19.906689    146.130554    49.619556    3.600435    2.466055    -57.693977    -0.114577    -2.619169    -3.449813    2.151669    -2.476299    -1.103985    22.217400    7.303545    20.444597    -17.762613    8.354639    18.284075    12.335832    2.523174    -14.370556    -4.072028    -5.653661    -14.887828    -3.580239    -1.586613    -84.171326    -2.380930    -4.285658    -25.225422    -14.188919    1.950259    -21.486261    23.540138    -21.882629    12.114057    12.366426    -41.212677    111.149757    40.044106    -40.444199    49.165363    36.227783    -22.306707    27.120155    -29.871269    42.067547    4.500263    -0.942303    -14.320397    43.555244    0.000000    0.000000    0.000000    -29.387112    -7.596313    -18.622997    3.806650    32.774982    -6.913494    20.234028    -13.456017    7.013513    0.000000    0.000000    0.000000    
19.902796    146.128387    49.620159    3.606571    2.454689    -57.688812    -0.140068    -2.623764    -3.451174    2.178627    -2.475744    -1.103654    22.220028    7.311448    20.437092    -17.775797    8.325327    18.272081    12.340208    2.523142    -14.387349    -4.076474    -5.657333    -14.906113    -3.548126    -1.632787    -84.224098    -2.387705    -4.304545    -25.209244    -14.201658    1.936437    -21.486750    23.524784    -21.897366    12.127489    12.406446    -41.172344    111.148994    40.050167    -40.438450    49.189743    36.212482    -22.302500    27.130739    -29.860687    42.057121    4.497622    -0.936271    -14.303892    43.543678    0.000000    0.000000    0.000000    -29.402790    -7.594184    -18.616962    3.827276    32.783489    -6.950880    20.220510    -13.471454    7.020884    0.000000    0.000000    0.000000    
19.892689    146.124725    49.619633    3.599855    2.450232    -57.673061    -0.136169    -2.627468    -3.468959    2.172134    -2.469818    -1.109856    22.204140    7.310879    20.426870    -17.740368    8.292799    18.259708    12.355200    2.523469    -14.388391    -4.072664    -5.678941    -14.922982    -3.547844    -1.652490    -84.261353    -2.398323    -4.324114    -25.186693    -14.194680    1.912848    -21.454355    23.498348    -21.911692    12.123551    12.414780    -41.148651    111.140045    40.064487    -40.412022    49.200855    36.211712    -22.299131    27.129450    -29.859903    42.058342    4.486596    -0.935915    -14.300409    43.542709    0.000000    0.000000    0.000000    -29.399996    -7.576872    -18.630384    3.810770    32.791695    -6.943031    20.234119    -13.480644    7.044644    0.000000    0.000000    0.000000    
19.885195    146.121262    49.615631    3.598276    2.446001    -57.656040    -0.148910    -2.636185    -3.479834    2.187157    -2.459738    -1.113279    22.185154    7.301864    20.421820    -17.698185    8.275311    18.254133    12.363647    2.519190    -14.389801    -4.075840    -5.677227    -14.952535    -3.531674    -1.696011    -84.302917    -2.414095    -4.352354    -25.154673    -14.192930    1.890716    -21.423458    23.465019    -21.920546    12.112374    12.434823    -41.140495    111.144844    40.081120    -40.416779    49.214436    36.210938    -22.300215    27.116734    -29.873360    42.055340    4.485008    -0.932544    -14.304626    43.547409    0.000000    0.000000    0.000000    -29.403816    -7.558776    -18.631210    3.822131    32.788761    -6.915090    20.209625    -13.511400    7.011440    0.000000    0.000000    0.000000    
